<?xml version="1.0" encoding="utf-8"?>
<!-- Generator: Adobe Illustrator 24.2.1, SVG Export Plug-In . SVG Version: 6.00 Build 0)  -->
<svg version="1.1" id="Layer_1" xmlns="http://www.w3.org/2000/svg" xmlns:xlink="http://www.w3.org/1999/xlink" x="0px" y="0px"
	 viewBox="0 0 512 512" style="enable-background:new 0 0 512 512;" xml:space="preserve">
<style type="text/css">
	.st0{fill:#FFFFFF;}
</style>
<path class="st0" d="M209.5,371.7l20,122.5c0,7.6,4.9,14.3,12.1,16.7c1.8,0.6,3.7,0.9,5.5,0.9c5.5,0,10.8-2.6,14.2-7.2l46.9-95.8
	L209.5,371.7z"/>
<path class="st0" d="M500.9,2.6C494.7-1,483,1.7,474,6.9L10.4,246.6c-6.2,3.3-9.9,9.9-9.4,16.9c0.5,7,5.2,13,11.8,15.3l157.7,53.3
	L464.5,48.4L255.4,350.2l231.9,90.3c1.8,0.6,3.8,0.9,5.7,0.9c3.2,0,6.4-0.9,9.2-2.6c4.5-2.7,7.5-7.3,8.3-12.4l0.1-400.7
	C510.7,16.7,510,7.9,500.9,2.6z"/>
</svg>
