<?xml version="1.0" standalone="no"?>
<!DOCTYPE svg PUBLIC "-//W3C//DTD SVG 20010904//EN"
 "http://www.w3.org/TR/2001/REC-SVG-20010904/DTD/svg10.dtd">
<svg version="1.0" xmlns="http://www.w3.org/2000/svg"
 width="190.000000pt" height="190.000000pt" viewBox="0 0 190.000000 190.000000"
 preserveAspectRatio="xMidYMid meet">
<metadata>
Created by potrace 1.11, written by Peter Selinger 2001-2013
</metadata>
<g transform="translate(0.000000,190.000000) scale(0.100000,-0.100000)"
fill="#000000" stroke="none">
<path d="M0 950 l0 -950 950 0 950 0 0 950 0 950 -950 0 -950 0 0 -950z m943
455 c213 -55 357 -245 357 -470 0 -243 -171 -445 -405 -478 -297 -41 -545 174
-545 474 0 142 38 243 126 338 121 130 295 181 467 136z m674 -714 c25 -16 33
-29 38 -65 15 -99 -22 -150 -111 -150 -45 0 -59 4 -80 25 -52 52 -40 169 20
195 44 19 96 17 133 -5z"/>
<path d="M752 1215 c-129 -40 -201 -157 -189 -306 7 -82 37 -147 89 -195 54
-48 95 -64 171 -64 109 0 194 57 240 159 28 64 27 190 -3 260 -29 66 -96 126
-163 146 -61 18 -88 18 -145 0z"/>
</g>
</svg>
