<?xml version="1.0" standalone="no"?>
<!DOCTYPE svg PUBLIC "-//W3C//DTD SVG 20010904//EN"
 "http://www.w3.org/TR/2001/REC-SVG-20010904/DTD/svg10.dtd">
<svg version="1.0" xmlns="http://www.w3.org/2000/svg"
 width="576.000000pt" height="576.000000pt" viewBox="0 0 576.000000 576.000000"
 preserveAspectRatio="xMidYMid meet">
<metadata>
Created by potrace 1.11, written by Peter Selinger 2001-2013
</metadata>
<g transform="translate(0.000000,576.000000) scale(0.100000,-0.100000)"
fill="#000000" stroke="none">
<path d="M3350 5427 c-26 -13 -36 -36 -70 -157 -10 -36 -25 -87 -33 -115 -9
-27 -29 -97 -45 -155 -45 -160 -120 -417 -143 -490 -11 -36 -23 -76 -25 -89
-3 -14 -7 -28 -10 -33 -3 -4 -7 -17 -9 -28 -2 -11 -16 -60 -31 -108 -14 -48
-28 -94 -29 -102 -2 -8 -4 -15 -5 -15 -1 0 -3 -7 -5 -15 -1 -8 -15 -55 -30
-105 -14 -49 -28 -94 -29 -100 -1 -5 -8 -28 -14 -50 -6 -22 -11 -42 -11 -45 0
-3 -5 -18 -11 -35 -7 -16 -13 -37 -15 -45 -2 -8 -15 -55 -30 -105 -15 -49 -40
-137 -57 -195 -16 -58 -36 -127 -44 -155 -9 -27 -18 -59 -21 -70 -7 -25 -47
-163 -79 -275 -14 -47 -38 -130 -54 -185 -15 -55 -61 -210 -100 -345 -40 -135
-73 -249 -75 -255 -1 -5 -5 -17 -8 -25 -3 -8 -22 -73 -42 -145 -20 -71 -48
-168 -61 -215 -14 -47 -27 -92 -29 -100 -2 -8 -15 -53 -29 -100 -14 -47 -36
-123 -50 -170 -13 -47 -31 -106 -39 -133 -8 -26 -13 -47 -11 -47 3 0 0 -8 -5
-18 -6 -11 -12 -30 -15 -43 -3 -13 -40 -141 -82 -284 -42 -143 -77 -264 -78
-270 -2 -5 -8 -29 -15 -53 -13 -48 -9 -72 18 -96 18 -16 209 -76 378 -119 76
-19 83 -20 106 -4 24 16 29 27 72 177 85 290 107 366 109 375 1 6 7 26 13 45
14 43 54 182 78 270 10 36 21 70 24 75 3 6 7 19 8 30 2 11 15 58 29 105 14 46
27 91 29 100 2 8 8 26 13 40 5 14 10 27 10 30 0 13 25 99 37 133 8 20 15 40
15 45 0 4 6 25 12 47 6 22 12 45 14 50 1 6 14 51 29 100 15 50 56 191 92 315
95 328 114 393 118 410 2 8 13 44 24 80 19 64 101 345 106 365 1 6 5 17 8 25
6 15 25 85 28 105 1 6 10 35 21 65 10 30 18 55 18 55 -1 0 1 7 4 15 2 8 37
128 76 265 64 226 152 530 195 675 42 144 60 206 146 500 50 173 93 322 94
330 2 8 4 15 5 15 1 0 4 9 7 20 24 97 6 115 -172 166 -311 90 -287 85 -325 66z"/>
<path d="M1412 4234 c-13 -9 -43 -35 -66 -58 -24 -22 -95 -89 -157 -147 -63
-59 -130 -122 -150 -140 -20 -19 -87 -82 -150 -141 -63 -58 -135 -126 -160
-150 -25 -23 -97 -90 -159 -148 -62 -58 -134 -125 -160 -150 -26 -25 -103 -97
-170 -160 -236 -221 -240 -225 -240 -261 0 -37 17 -55 434 -440 38 -35 92 -86
121 -114 29 -27 105 -99 170 -160 65 -60 138 -129 162 -151 23 -23 91 -86 149
-140 59 -55 135 -126 169 -159 190 -182 219 -205 255 -205 29 0 55 22 170 146
31 32 81 87 113 120 43 46 59 71 62 98 6 41 1 47 -134 166 -41 36 -79 70 -85
75 -6 6 -45 39 -86 75 -41 36 -84 74 -95 85 -12 11 -50 45 -84 75 -35 30 -79
69 -97 85 -18 17 -61 55 -96 86 -203 179 -324 287 -348 310 -9 8 -26 22 -38
31 -22 15 -22 16 55 84 43 38 83 73 89 79 6 5 41 37 79 70 37 33 75 67 84 75
9 9 54 49 101 90 47 41 87 77 90 80 3 3 79 71 170 150 91 80 170 150 176 155
6 6 44 39 84 75 167 147 170 156 88 247 -56 62 -156 167 -225 239 -47 48 -81
56 -121 28z"/>
<path d="M4231 4212 c-120 -126 -265 -283 -272 -294 -27 -41 0 -88 91 -162 19
-15 58 -49 85 -75 28 -25 106 -95 175 -155 69 -60 139 -122 155 -138 37 -34
74 -67 155 -138 35 -30 68 -59 74 -65 6 -5 32 -28 57 -50 77 -68 192 -171 239
-214 l45 -41 -47 -43 c-40 -37 -119 -107 -184 -164 -25 -22 -171 -152 -194
-173 -9 -8 -50 -44 -91 -80 -41 -35 -76 -67 -79 -70 -3 -3 -61 -55 -130 -115
-69 -61 -130 -114 -136 -120 -6 -5 -44 -39 -84 -75 -163 -144 -169 -157 -97
-237 51 -58 188 -202 240 -255 57 -57 93 -51 178 32 23 22 218 205 310 291
122 114 290 272 340 319 31 30 106 100 165 155 59 55 131 123 160 150 29 28
96 91 149 140 54 50 127 119 162 154 61 59 65 66 60 99 -5 25 -20 48 -55 81
-27 25 -104 98 -172 161 -68 63 -145 135 -171 160 -26 25 -98 92 -160 150 -62
58 -129 121 -149 140 -20 19 -92 87 -160 150 -160 150 -174 163 -326 306 -230
218 -226 214 -263 214 -26 0 -42 -9 -70 -38z"/>
</g>
</svg>
