<?xml version="1.0" encoding="utf-8"?>
<!-- Generator: Adobe Illustrator 24.3.0, SVG Export Plug-In . SVG Version: 6.00 Build 0)  -->
<svg version="1.1" id="Layer_1" xmlns="http://www.w3.org/2000/svg" xmlns:xlink="http://www.w3.org/1999/xlink" x="0px" y="0px"
	 viewBox="0 0 600 600" style="enable-background:new 0 0 600 600;" xml:space="preserve">
<style type="text/css">
	.st0{fill:#FFFFFF;}
	.st1{fill:#E5E5E5;}
	.st2{fill:#B73832;}
	.st3{fill:#E74C3C;}
</style>
<g>
	<path class="st0" d="M551.7,127.7v438c0,19-15.4,34.3-34.3,34.3H120.6c-19,0-34.3-15.4-34.3-34.3V34.3c0-19,15.4-34.3,34.3-34.3
		H424v93.4c0,19,15.4,34.3,34.3,34.3H551.7z"/>
	<path class="st1" d="M551.7,127.7h-93.4c-19,0-34.3-15.4-34.3-34.3V0L551.7,127.7z"/>
	<polygon class="st2" points="36.5,401.4 86.3,371.5 86.3,401.4 	"/>
	<path class="st3" d="M499.5,557.1h-463V401.4h463c1.3,0,2.4,1.1,2.4,2.4v150.9C501.9,556,500.8,557.1,499.5,557.1z"/>
	<g>
		<path class="st0" d="M138.7,432.1h43.2c28,0,33.3,17.4,33.3,29.2c0,11.7-5.4,28.9-33.3,28.9h-26.1v36.2h-17.2V432.1z M155.9,476.7
			H181c7.7,0,17.1-3.7,17.1-15.6c0-12.4-7.8-15.6-16.9-15.6h-25.4V476.7z"/>
		<path class="st0" d="M231.6,432.1h40.6c30.2,0,43.2,21.1,43.2,47.1c0,26-13,47.1-43.2,47.1h-40.6V432.1z M248.7,512.9h16.9
			c26.9,0,32.7-14.6,32.7-33.7c0-19-5.8-33.7-32.7-33.7h-16.9V512.9z"/>
		<path class="st0" d="M332,432.1h67.6v14.3h-50.5v24.7h44.3v13.5h-44.3v41.8H332V432.1z"/>
	</g>
</g>
<path class="st1" d="M260.5,220.1V93.9h94.6v126.2h63.1l-110.4,94.6l-110.4-94.6C197.4,220.1,260.5,220.1,260.5,220.1z M449.8,371.2
	H165.8v-31.5h283.9V371.2z"/>
</svg>
