<?xml version="1.0" standalone="no"?>
<!DOCTYPE svg PUBLIC "-//W3C//DTD SVG 20010904//EN"
 "http://www.w3.org/TR/2001/REC-SVG-20010904/DTD/svg10.dtd">
<svg version="1.0" xmlns="http://www.w3.org/2000/svg"
 width="190.000000pt" height="190.000000pt" viewBox="0 0 190.000000 190.000000"
 preserveAspectRatio="xMidYMid meet">
<metadata>
Created by potrace 1.11, written by Peter Selinger 2001-2013
</metadata>
<g transform="translate(0.000000,190.000000) scale(0.100000,-0.100000)"
fill="#000000" stroke="none">
<path d="M0 950 l0 -950 950 0 950 0 0 950 0 950 -950 0 -950 0 0 -950z m1579
644 c50 -36 51 -43 51 -629 0 -586 -1 -593 -51 -629 -30 -20 -88 -21 -117 0
-12 8 -29 29 -38 45 l-15 30 -35 -26 c-159 -122 -369 -108 -517 34 -191 182
-194 539 -7 731 134 138 356 159 517 49 l43 -28 0 170 c0 183 8 222 51 253 13
9 39 16 59 16 20 0 46 -7 59 -16z m-1156 -1046 c37 -19 46 -40 47 -105 0 -51
-4 -67 -24 -90 -22 -25 -30 -28 -90 -28 -89 0 -108 19 -114 109 -4 62 -3 67
26 96 26 26 38 30 82 30 28 0 61 -5 73 -12z"/>
<path d="M1103 1069 c-74 -18 -156 -107 -177 -193 -12 -51 -8 -155 9 -205 20
-61 77 -128 129 -152 94 -43 233 -12 289 63 54 72 62 97 62 203 0 109 -17 157
-74 218 -55 60 -151 86 -238 66z"/>
</g>
</svg>
